Coordinates
version=1
nRows=18
nColumns=19
inDegrees=yes

Units are S.I. units (second, meters, Newtons, ...)
If the header above contains a line with 'inDegrees', this indicates whether rotational values are in degrees (yes) or radians (no).

endheader
time	pelvis_tilt	pelvis_list	pelvis_rotation	pelvis_tx	pelvis_ty	pelvis_tz	hip_flexion_r	hip_adduction_r	hip_rotation_r	knee_angle_r	knee_angle_r_beta	ankle_angle_r	hip_flexion_l	hip_adduction_l	hip_rotation_l	knee_angle_l	knee_angle_l_beta	ankle_angle_l
     13.63333333	     -1.83042192	      8.35069594	      8.85590771	      2.35324051	      0.94384925	      1.06794471	    -16.50963030	     -7.63453807	    -17.59912258	     88.85930948	      1.55088752	     -6.29233030	     25.65144696	     15.18446891	      4.85784536	     16.36465954	      0.28561719	      4.32735401
     13.64000000	     -1.88572988	      8.74002091	      9.36161632	      2.35195411	      0.93905254	      1.06646910	    -14.77230588	     -8.35400640	    -17.38158668	     93.68000514	      1.63502453	     -5.21264513	     25.67227337	     15.56624859	      3.44056607	     19.09325551	      0.33324017	      4.25632752
     13.64666667	     -1.48463996	      9.40785084	      9.92214698	      2.35042219	      0.93439516	      1.06526776	    -13.56701150	     -9.26625830	    -17.27716881	     98.29740044	      1.71561328	     -4.18536647	     25.23908851	     16.11651661	      2.12962469	     22.23085166	      0.38800156	      4.50914660
     13.65333333	     -1.97759996	      9.61078749	     10.38375670	      2.34844959	      0.92864650	      1.06446413	    -10.94707001	     -9.76696699	    -16.56486252	    102.99276395	      1.79756284	     -3.35894363	     25.99075541	     16.19319553	      0.84944595	     25.86550480	      0.45143822	      5.10917800
     13.66000000	     -2.15621590	      9.95739369	     10.82681478	      2.34626980	      0.92321229	      1.06403294	     -8.60749772	    -10.36964797	    -15.84405685	    107.44758102	      1.87531406	     -2.63124907	     26.29452401	     16.34114308	     -0.09177941	     29.49605668	      0.51480331	      6.10621344
     13.66666667	     -2.36013079	     10.27849906	     11.19890087	      2.34383647	      0.91793922	      1.06392522	     -6.04966371	    -10.96717593	    -14.93514914	    111.69665853	      1.94947445	     -2.04010600	     26.49683029	     16.44571177	     -0.73310862	     32.99891730	      0.57593976	      7.47840258
     13.67333333	     -2.56928076	     10.57672239	     11.48934249	      2.34120685	      0.91318355	      1.06422005	     -3.26965662	    -11.55908048	    -13.83048438	    115.66326419	      2.01870478	     -1.63826507	     26.49205942	     16.52091377	     -1.04101234	     36.18403240	      0.63153050	      9.20592247
     13.68000000	     -1.93795926	     11.22869073	     11.90935420	      2.33898977	      0.91013052	      1.06454216	     -1.60780164	    -12.47408203	    -13.09145571	    118.96674233	      2.07636135	     -1.44462952	     25.07564902	     16.97418317	     -0.68497438	     38.73111292	      0.67598544	     11.19041897
     13.68666667	      0.39922345	     11.08216137	     13.34404368	      2.34069077	      0.91145038	      1.06456453	     -2.61383207	    -11.67168833	    -14.06315541	    119.89694538	      2.09259646	     -1.45175901	     21.06288247	     16.55336278	      1.27427923	     40.80343619	      0.71215431	     13.69210947
     13.69333333	      4.39229416	     11.67586544	     14.48738400	      2.34299948	      0.91587480	      1.06489686	     -5.70749686	    -11.34964075	    -15.30251008	    119.94773285	      2.09348287	     -1.59856642	     14.47324419	     16.23299764	      3.65633365	     41.63612243	      0.72668742	     16.21325713
     13.70000000	      7.82696386	     11.89861688	     15.16874319	      2.34434339	      0.92034056	      1.06552538	     -7.58069126	    -10.82984573	    -15.89948486	    119.96297893	      2.09374896	     -1.70297300	      8.43885114	     15.26021107	      5.76092559	     41.90931516	      0.73145554	     18.53789499
     13.70666667	     10.71537960	     11.83932750	     15.39065105	      2.34483957	      0.92481765	      1.06624043	     -8.34884084	    -10.36292621	    -15.89331214	    119.96969342	      2.09386615	     -1.72076381	      2.91291813	     13.91138898	      7.45706854	     41.51306531	      0.72453967	     20.61171996
     13.71333333	     12.96160069	     11.32022775	     15.30873945	      2.34441344	      0.92910939	      1.06690342	     -7.90980218	     -9.76249803	    -15.41003251	    119.97284310	      2.09392113	     -1.58436917	     -1.87527020	     12.18385447	      8.71992147	     40.64815962	      0.70944422	     22.28686335
     13.72000000	     13.48837588	     10.01685647	     15.46442441	      2.34348765	      0.93240975	      1.06692905	     -5.16144629	     -8.88321507	    -14.80658152	    119.97450064	      2.09395005	     -1.37072844	     -4.67112523	     10.17676026	      9.92972277	     39.58643705	      0.69091367	     23.44500720
     13.72666667	     14.99238157	      9.05745320	     14.43944348	      2.34152214	      0.93636141	      1.06780648	     -3.17930278	     -8.29419365	    -13.30759416	    119.97423441	      2.09394541	     -0.97372793	     -8.70883835	      8.30803161	      9.77403992	     37.83067113	      0.66026977	     24.05722002
     13.73333333	     14.88075106	      7.71314016	     13.72573908	      2.33929682	      0.93900702	      1.06797532	      0.68141258	     -7.70505749	    -11.93777852	    119.97281402	      2.09392062	     -0.41702018	    -10.97048844	      6.66989039	      9.80456389	     36.07900655	      0.62969746	     24.10593909
     13.74000000	     13.94413711	      6.27629705	     12.63945226	      2.33684689	      0.94076559	      1.06833484	      5.63037410	     -7.06292147	    -10.19229527	    119.97001688	      2.09387180	      0.20757096	    -12.35316947	      5.29833485	      9.22447729	     34.25088247	      0.59779067	     23.52093867
     13.74666667	     12.13405599	      4.92184401	     11.22057048	      2.33439173	      0.94139918	      1.06890769	     11.60987766	     -6.41437517	     -8.14626396	    119.96496812	      2.09378368	      0.82409219	    -12.81940280	      4.33492286	      8.13571197	     32.45892812	      0.56651517	     22.30512904
